# xmcd CD database file
#
# Track frame offsets:
#	150
#	27058
#	49558
#	66223
#	93280
#	119765
#	145133
#	164748
#	181855
#	204225
#
# Disc length: 3042 seconds
#
# Revision: 0
# Processed by: cddbd v1.5PL3 Copyright (c) Steve Scherf et al.
# Submitted via: CDex 1.51
#
DISCID=860be00a
DTITLE=Roberto Roena - Lucky 7
DYEAR=1976
DGENRE=Salsa
TTITLE0=Que castigue Dios
TTITLE1=A bailar mi bomba
TTITLE2=Te voy a tratar
TTITLE3=Estas equivocada
TTITLE4=Fea
TTITLE5=Mi desengaño
TTITLE6=La hija de la vecina
TTITLE7=Hoy mi día triste
TTITLE8=La mala maña
TTITLE9=Me le fugue a la candela
EXTD=YEAR: 1976
EXTT0=
EXTT1=
EXTT2=
EXTT3=
EXTT4=
EXTT5=
EXTT6=
EXTT7=
EXTT8=
EXTT9=
PLAYORDER=
